<?xml version="1.0" encoding="UTF-8"?>
<svg id="Layer_1" data-name="Layer 1" xmlns="http://www.w3.org/2000/svg" viewBox="0 0 600 600">
  <defs>
    <style>
      .cls-1 {
        fill: #900;
      }
    </style>
  </defs>
  <path class="cls-1" d="M300.03,5.35C137.28,5.35,5.35,137.28,5.35,300.03s131.93,294.61,294.68,294.61,294.61-131.93,294.61-294.61S462.72,5.35,300.03,5.35ZM475.65,237.19l-24.86,78.56-39.25,45.01-21.94,96.66,3.51,13.26,10.28-4.24,11.47,5.24v16.37h-37.59l-10.94-39.31,7.62-3.98,1.06-69.15-105.34-16.04-23.8,37.59-48.66,36.53,6.63,36.99,13.39-7.82,15.58,8.95v16.24h-47.14l-14.25-64.44,10.54-5.44,21.21-28.37-15.91-27.98-14.12,35.93-34.01,22.61-41.77-.86-28.44-30.16,53.43-15.38,40.64-60,17.83-10.81,17.77-28.18,37.32-13.46,104.28-4.97,37.06-25.39,12.79-21.74-8.02-.8c-2.72-.27-4.84-2.59-4.84-5.44,0-1.66.73-3.12,1.86-4.11l.07-.07c.07-.07.2-.13.27-.2l24.99-19.42,20.09-24.26,14.05,1.52,26.58-26.58,8.15,19.23-2.32,14.92,6.23-5.9,3.31,7.82-11.93,35.73,7.09,35.34Z"/>
</svg>